<?xml version="1.0" encoding="UTF-8" standalone="no"?>
<!-- Created with Inkscape (http://www.inkscape.org/) -->

<svg
   xmlns:dc="http://purl.org/dc/elements/1.1/"
   xmlns:cc="http://creativecommons.org/ns#"
   xmlns:rdf="http://www.w3.org/1999/02/22-rdf-syntax-ns#"
   xmlns:svg="http://www.w3.org/2000/svg"
   xmlns="http://www.w3.org/2000/svg"
   xmlns:sodipodi="http://sodipodi.sourceforge.net/DTD/sodipodi-0.dtd"
   xmlns:inkscape="http://www.inkscape.org/namespaces/inkscape"
   id="svg2990"
   version="1.1"
   inkscape:version="0.48.5 r10040"
   sodipodi:docname="location.svg"
   x="0px"
   y="0px"
   width="100%"
   height="100%">
  <defs
     id="defs2992" />
  <sodipodi:namedview
     id="base"
     pagecolor="#ffffff"
     bordercolor="#666666"
     borderopacity="1.0"
     inkscape:pageopacity="0.0"
     inkscape:pageshadow="2"
     inkscape:zoom="13.12"
     inkscape:cx="18.65942"
     inkscape:cy="1031.1086"
     inkscape:document-units="px"
     inkscape:current-layer="layer1"
     showgrid="false"
     inkscape:snap-center="true"
     inkscape:snap-grids="false"
     inkscape:snap-page="true"
     inkscape:window-width="1920"
     inkscape:window-height="1025"
     inkscape:window-x="-2"
     inkscape:window-y="32"
     inkscape:window-maximized="1" />
  <metadata
     id="metadata2995">
    <rdf:RDF>
      <cc:Work
         rdf:about="">
        <dc:format>image/svg+xml</dc:format>
        <dc:type
           rdf:resource="http://purl.org/dc/dcmitype/StillImage" />
        <dc:title />
      </cc:Work>
    </rdf:RDF>
  </metadata>
  <g
     inkscape:label="Layer 1"
     inkscape:groupmode="layer"
     id="layer1">
    <g
       id="g3767">
      <path
         id="rect2995"
         d="M 0,0 0,36 24,36 24,0 0,0 z M 1,1 23,1 23,35 1,35 1,1 z"
         style="fill:#999999;fill-opacity:1;stroke:none"
         inkscape:connector-curvature="0" />
      <path
         d="M 11.999999,2.999601 C 7.5886731,2.999601 4,6.498855 4,10.910182 c 0,0.977645 0.2086439,2.044709 0.5842027,3.00447 l -0.00596,0 0.035768,0.07153 0,0 c 0.029806,0.06557 0.059613,0.131147 0.089419,0.196721 L 12.000002,29.706 l 7.260803,-15.445601 0.03577,-0.07153 c 0.0298,-0.06557 0.06557,-0.131147 0.09538,-0.202681 l 0.02385,-0.06558 c 0.387482,-0.95976 0.584203,-1.973173 0.584203,-2.998509 0,-4.423249 -3.588674,-7.922503 -7.999998,-7.922503 z m 6.503725,10.57526 -0.01192,0.0298 c -0.01788,0.03577 -0.03577,0.0775 -0.05365,0.113264 l -0.05962,0.125186 -6.378539,13.555886 -6.3844998,-13.555886 -0.053651,-0.119224 c -0.017883,-0.03577 -0.035768,-0.07153 -0.04769,-0.107304 C 5.162438,12.752206 4.9716781,11.792444 4.9716781,10.91018 c 0,-3.874813 3.1535018,-6.944858 7.0342759,-6.944858 3.880775,0 7.034277,3.064083 7.034277,6.944858 -0.006,0.90611 -0.184798,1.800298 -0.536513,2.664679 z"
         id="path5"
         inkscape:connector-curvature="0"
         style="fill:#999999;fill-opacity:1" />
      <path
         inkscape:connector-curvature="0"
         id="path3084"
         d="M 12.000001,27 C 7.5817223,27 4,28.343146 4,30 c 0,1.656854 3.5817223,3 8.000001,3 4.418278,0 8,-1.343146 8,-3 0,-1.656854 -3.581722,-3 -8,-3 z m 0,1 c 3.865993,0 7,0.895431 7,2 0,1.104569 -3.134007,2 -7,2 C 8.1340073,32 5,31.104569 5,30 5,28.895431 8.1340073,28 12.000001,28 z"
         style="fill:#999999;fill-opacity:1;stroke:none" />
      <path
         inkscape:connector-curvature="0"
         id="path4138"
         d="m 12.000004,6.706 c -2.209139,0 -4,1.790861 -4,4 0,2.209139 1.790861,4 4,4 2.209139,0 4,-1.790861 4,-4 0,-2.209139 -1.790861,-4 -4,-4 z m 0,1 c 1.656854,0 3,1.343146 3,3 0,1.656854 -1.343146,3 -3,3 -1.656854,0 -3,-1.343146 -3,-3 0,-1.656854 1.343146,-3 3,-3 z"
         style="fill:#999999;fill-opacity:1;stroke:none" />
    </g>
  </g>
</svg>
