<?xml version="1.0" encoding="UTF-8" standalone="no"?>
<!-- Created with Inkscape (http://www.inkscape.org/) -->

<svg
   xmlns:dc="http://purl.org/dc/elements/1.1/"
   xmlns:cc="http://creativecommons.org/ns#"
   xmlns:rdf="http://www.w3.org/1999/02/22-rdf-syntax-ns#"
   xmlns:svg="http://www.w3.org/2000/svg"
   xmlns="http://www.w3.org/2000/svg"
   xmlns:sodipodi="http://sodipodi.sourceforge.net/DTD/sodipodi-0.dtd"
   xmlns:inkscape="http://www.inkscape.org/namespaces/inkscape"
   id="svg2990"
   version="1.1"
   inkscape:version="0.48.5 r10040"
   sodipodi:docname="skype.svg"
   x="0px"
   y="0px"
   width="100%"
   height="100%">
  <defs
     id="defs2992" />
  <sodipodi:namedview
     id="base"
     pagecolor="#ffffff"
     bordercolor="#666666"
     borderopacity="1.0"
     inkscape:pageopacity="0.0"
     inkscape:pageshadow="2"
     inkscape:zoom="22.837729"
     inkscape:cx="0.030271502"
     inkscape:cy="1045.4413"
     inkscape:document-units="px"
     inkscape:current-layer="layer1"
     showgrid="false"
     inkscape:snap-center="true"
     inkscape:snap-grids="false"
     inkscape:snap-page="true"
     inkscape:window-width="1920"
     inkscape:window-height="1025"
     inkscape:window-x="-2"
     inkscape:window-y="32"
     inkscape:window-maximized="1" />
  <metadata
     id="metadata2995">
    <rdf:RDF>
      <cc:Work
         rdf:about="">
        <dc:format>image/svg+xml</dc:format>
        <dc:type
           rdf:resource="http://purl.org/dc/dcmitype/StillImage" />
        <dc:title />
      </cc:Work>
    </rdf:RDF>
  </metadata>
  <g
     inkscape:label="Layer 1"
     inkscape:groupmode="layer"
     id="layer1">
    <g
       id="g4824">
      <path
         id="rect3882-0"
         d="M 0,0 0,18 24,18 24,0 0,0 z M 1,1 23,1 23,17 1,17 1,1 z"
         style="fill:#999999;fill-opacity:1;stroke:none"
         inkscape:connector-curvature="0" />
      <path
         inkscape:connector-curvature="0"
         id="path4953"
         d="M 7.5,0 C 5.0147187,0 3,2.014719 3,4.5 3,5.64391 3.4531758,6.64354 4.15625,7.4375 4.0576402,7.939343 4,8.469255 4,9 c 0,4.418278 3.5817221,8 8,8 0.509187,0 1.017236,-0.06531 1.5,-0.15625 C 14.294904,17.550895 15.352385,18 16.5,18 18.985281,18 21,15.985281 21,13.5 21,12.35609 20.546824,11.32521 19.84375,10.53125 19.94236,10.029407 20,9.530745 20,9 20,4.581722 16.418278,1 12,1 11.490813,1 10.982764,1.03406 10.5,1.125 9.7050963,0.417855 8.6476152,0 7.5,0 z m 0,1 C 8.5761012,1 9.5142141,1.485932 10.15625,2.25 10.743186,2.090323 11.362483,2 12,2 c 3.865993,0 7,3.134007 7,7 0,0.632579 -0.09271,1.22964 -0.25,1.8125 C 19.512126,11.454533 20,12.425481 20,13.5 20,15.432997 18.432997,17 16.5,17 15.432368,17 14.485727,16.503694 13.84375,15.75 13.257588,15.909223 12.636579,16 12,16 8.1340068,16 5,12.865993 5,9 5,8.367421 5.092705,7.73911 5.25,7.15625 4.4878738,6.514217 4,5.574519 4,4.5 4,2.567003 5.5670034,1 7.5,1 z"
         style="fill:#999999;fill-opacity:1;stroke:none" />
      <text
         sodipodi:linespacing="125%"
         id="text5629"
         y="12.383247"
         x="8.7910986"
         style="font-size:31.41362761999999975px;font-style:normal;font-weight:normal;line-height:125%;letter-spacing:0px;word-spacing:0px;fill:#999999;fill-opacity:1;stroke:none;font-family:Sans"
         xml:space="preserve"><tspan
           style="font-size:9.42408657000000005px;font-style:normal;font-variant:normal;font-weight:600;font-stretch:normal;text-align:start;line-height:125%;writing-mode:lr-tb;text-anchor:start;fill:#999999;fill-opacity:1;font-family:FreeSans;-inkscape-font-specification:FreeSans Semi-Bold"
           y="12.383247"
           x="8.7910986"
           id="tspan5631"
           sodipodi:role="line">S</tspan></text>
    </g>
  </g>
</svg>
